<?xml version="1.0" standalone="no"?>
<!DOCTYPE svg PUBLIC "-//W3C//DTD SVG 20010904//EN"
 "http://www.w3.org/TR/2001/REC-SVG-20010904/DTD/svg10.dtd">
<svg version="1.0" xmlns="http://www.w3.org/2000/svg"
 width="577.000000pt" height="494.000000pt" viewBox="0 0 577.000000 494.000000"
 preserveAspectRatio="xMidYMid meet">
<metadata>
Created by potrace 1.15, written by Peter Selinger 2001-2017
</metadata>
<g transform="translate(0.000000,494.000000) scale(0.100000,-0.100000)"
fill="#000000" stroke="none">
<path d="M4095 3863 c-44 -2 -84 -8 -89 -13 -6 -6 -22 -10 -37 -10 -15 0 -34
-7 -43 -15 -8 -8 -26 -15 -40 -15 -14 0 -26 -4 -26 -10 0 -5 -11 -10 -25 -10
-14 0 -25 -4 -25 -10 0 -5 -9 -10 -20 -10 -11 0 -20 -4 -20 -10 0 -5 -9 -10
-20 -10 -11 0 -20 -4 -20 -10 0 -5 -9 -10 -20 -10 -11 0 -20 -4 -20 -10 0 -5
-6 -10 -13 -10 -7 0 -23 -9 -35 -20 -12 -11 -26 -20 -32 -20 -6 0 -21 -9 -33
-21 -12 -12 -38 -33 -57 -48 -49 -37 -160 -149 -160 -161 0 -5 -4 -10 -10 -10
-5 0 -10 -6 -10 -13 0 -7 -9 -18 -20 -24 -11 -7 -27 -27 -36 -45 -9 -18 -20
-35 -23 -38 -10 -8 -42 -63 -48 -82 -3 -10 -9 -18 -14 -18 -5 0 -9 -7 -9 -15
0 -8 -9 -30 -20 -50 -11 -20 -20 -42 -20 -50 0 -8 -4 -15 -10 -15 -5 0 -10
-13 -10 -30 0 -16 -4 -30 -10 -30 -5 0 -10 -13 -10 -30 0 -16 -4 -30 -10 -30
-5 0 -10 -18 -10 -39 0 -25 -5 -41 -15 -45 -10 -3 -15 -19 -15 -44 0 -21 -4
-42 -9 -47 -5 -6 -12 -35 -16 -65 -11 -86 -9 -627 3 -705 19 -125 29 -169 41
-173 6 -2 11 -17 11 -33 0 -16 5 -29 10 -29 6 0 10 -16 10 -35 0 -19 5 -35 10
-35 6 0 10 -13 10 -30 0 -16 5 -30 10 -30 6 0 10 -9 10 -20 0 -11 5 -20 10
-20 6 0 10 -9 10 -20 0 -11 5 -20 10 -20 6 0 10 -9 10 -20 0 -11 5 -20 10 -20
6 0 10 -8 10 -17 0 -10 18 -42 40 -71 22 -29 40 -56 40 -59 0 -4 29 -35 65
-69 36 -34 65 -65 65 -69 0 -12 50 -54 115 -96 33 -21 65 -43 72 -49 7 -5 19
-10 28 -10 8 0 15 -4 15 -10 0 -5 9 -10 20 -10 11 0 20 -4 20 -10 0 -5 9 -10
20 -10 11 0 20 -4 20 -10 0 -5 14 -10 30 -10 17 0 30 -4 30 -10 0 -5 9 -10 21
-10 11 0 27 -7 35 -15 9 -8 32 -15 53 -15 20 0 41 -4 46 -9 15 -14 89 -23 200
-24 l100 -2 3 143 3 142 -40 0 c-22 0 -43 5 -46 10 -3 6 -13 10 -21 10 -20 0
-64 45 -64 65 0 8 -4 15 -10 15 -5 0 -10 7 -10 15 0 8 -4 15 -10 15 -5 0 -10
9 -10 19 0 11 -4 23 -10 26 -7 4 -10 345 -10 991 0 649 3 984 10 984 6 0 10
14 10 30 0 17 3 30 8 30 4 0 14 15 21 33 18 40 35 57 55 57 9 0 16 5 16 10 0
6 7 10 15 10 8 0 15 5 15 10 0 6 13 10 28 10 48 0 52 13 52 157 0 120 -2 133
-17 133 -10 0 -27 2 -38 3 -11 2 -56 2 -100 0z"/>
<path d="M4382 3718 l3 -143 43 -3 c23 -2 42 -7 42 -13 0 -5 11 -9 25 -9 14 0
25 -4 25 -10 0 -5 9 -10 20 -10 11 0 20 -4 20 -10 0 -5 7 -10 15 -10 8 0 15
-6 15 -14 0 -8 8 -17 18 -20 24 -8 93 -74 122 -118 14 -21 28 -38 31 -38 4 0
12 -13 19 -30 7 -16 16 -30 21 -30 5 0 9 -7 9 -15 0 -9 7 -18 15 -21 8 -4 15
-15 15 -25 0 -10 5 -19 10 -19 6 0 10 -9 10 -20 0 -11 5 -20 10 -20 6 0 10 -9
10 -20 0 -11 5 -20 10 -20 6 0 10 -11 10 -25 0 -14 5 -25 10 -25 6 0 10 -11
10 -24 0 -14 5 -28 10 -31 6 -3 10 -19 10 -35 0 -16 5 -32 10 -35 6 -3 10 -19
10 -36 0 -16 5 -29 10 -29 6 0 10 -13 10 -30 0 -16 5 -30 10 -30 6 0 10 -7 10
-15 0 -22 50 -75 72 -75 10 0 18 -4 18 -10 0 -27 107 7 134 43 10 14 24 47 29
74 14 66 21 893 7 907 -5 5 -10 25 -10 43 0 22 -9 44 -27 63 -26 30 -29 31
-102 28 -74 -3 -76 -4 -96 -37 -29 -50 -93 -111 -115 -111 -11 0 -20 5 -20 10
0 6 -13 10 -29 10 -17 0 -33 5 -36 10 -3 6 -17 10 -30 10 -13 0 -27 5 -30 10
-3 6 -17 10 -30 10 -13 0 -27 5 -30 10 -3 6 -19 10 -36 10 -16 0 -29 5 -29 10
0 6 -13 10 -29 10 -16 0 -31 6 -35 15 -3 9 -18 15 -40 15 -19 0 -38 5 -41 10
-3 6 -31 10 -61 10 l-55 0 3 -142z"/>
<path d="M2490 2801 c0 -5 -14 -14 -31 -22 -18 -7 -42 -23 -55 -36 -13 -13
-26 -23 -29 -23 -13 0 -55 -50 -55 -65 0 -8 -4 -15 -10 -15 -5 0 -10 -9 -10
-20 0 -13 -7 -20 -20 -20 -19 0 -20 -7 -20 -145 0 -138 1 -145 20 -145 15 0
20 -7 20 -25 0 -14 5 -25 10 -25 6 0 10 -7 10 -16 0 -15 23 -44 35 -44 4 0 20
-13 35 -30 15 -16 35 -30 44 -30 9 0 16 -4 16 -10 0 -5 9 -10 20 -10 13 0 20
-7 20 -20 0 -19 7 -20 125 -20 118 0 125 1 125 20 0 13 7 20 20 20 11 0 20 5
20 10 0 6 8 10 18 10 10 0 24 9 32 20 8 11 18 20 23 20 13 0 37 27 37 42 0 8
9 20 20 28 13 9 20 26 20 47 0 26 4 33 20 33 19 0 20 7 20 135 0 128 -1 135
-20 135 -13 0 -20 7 -20 18 0 10 -9 24 -20 32 -11 8 -20 20 -20 28 0 14 -23
42 -35 42 -3 0 -16 10 -29 23 -13 13 -37 29 -55 36 -17 8 -31 17 -31 22 0 5
-56 9 -125 9 -69 0 -125 -4 -125 -9z"/>
<path d="M4990 2474 c0 -20 -24 -44 -44 -44 -9 0 -16 -7 -16 -15 0 -9 -11 -27
-25 -41 -23 -23 -25 -32 -25 -119 0 -87 2 -96 25 -119 14 -14 25 -32 25 -41 0
-8 7 -15 15 -15 15 0 25 -6 60 -37 9 -8 45 -13 100 -13 54 0 91 5 101 13 8 6
21 18 29 25 7 6 21 12 29 12 9 0 16 7 16 16 0 20 24 44 44 44 14 0 16 17 16
115 0 98 -2 115 -16 115 -20 0 -44 24 -44 44 0 9 -7 16 -16 16 -20 0 -44 24
-44 44 0 14 -17 16 -115 16 -98 0 -115 -2 -115 -16z"/>
<path d="M4660 2090 c0 -5 -7 -10 -15 -10 -8 0 -15 -4 -15 -10 0 -5 -9 -10
-20 -10 -13 0 -20 -7 -20 -20 0 -11 -4 -20 -10 -20 -5 0 -10 -7 -10 -15 0 -8
-4 -15 -10 -15 -6 0 -10 -44 -10 -113 0 -101 2 -114 20 -127 11 -8 20 -22 20
-32 0 -11 7 -18 20 -18 11 0 20 -4 20 -10 0 -5 11 -10 25 -10 18 0 25 -5 25
-20 0 -19 7 -20 95 -20 88 0 95 1 95 20 0 13 7 20 20 20 11 0 20 5 20 10 0 6
9 10 20 10 12 0 20 7 20 16 0 18 23 44 39 44 6 0 11 -11 11 -25 0 -14 -4 -25
-10 -25 -5 0 -10 -9 -10 -19 0 -11 -4 -23 -10 -26 -5 -3 -10 -16 -10 -28 0
-12 -9 -33 -20 -47 -11 -14 -20 -31 -20 -37 0 -7 -4 -13 -10 -13 -5 0 -10 -7
-10 -16 0 -20 -145 -159 -187 -179 -18 -9 -33 -20 -33 -25 0 -6 -7 -10 -15
-10 -8 0 -15 -4 -15 -8 0 -5 -22 -15 -50 -22 -27 -7 -50 -17 -50 -22 0 -4 -16
-8 -35 -8 -19 0 -35 -4 -35 -10 0 -5 -22 -10 -50 -10 l-50 0 0 -146 0 -146 58
5 c122 12 242 40 242 57 0 6 14 10 30 10 17 0 30 5 30 10 0 6 9 10 20 10 11 0
20 5 20 10 0 6 7 10 15 10 8 0 15 5 15 10 0 6 7 10 16 10 9 0 24 8 33 19 9 10
30 25 46 34 36 18 195 182 195 200 0 7 9 19 20 27 11 8 20 22 20 32 0 10 4 18
10 18 13 0 60 75 60 95 0 8 3 15 8 15 9 0 32 72 32 99 0 11 5 23 10 26 6 3 10
24 10 45 0 21 -4 42 -10 45 -5 3 -10 17 -10 31 0 23 -20 54 -35 54 -4 0 -13 7
-21 15 -10 9 -34 15 -67 15 -45 0 -54 -4 -84 -36 l-33 -37 0 112 c0 104 -1
111 -20 111 -11 0 -20 7 -20 15 0 8 -4 15 -10 15 -5 0 -10 9 -10 20 0 13 -7
20 -18 20 -10 0 -24 9 -32 20 -13 18 -26 20 -127 20 -69 0 -113 -4 -113 -10z"/>
<path d="M5370 2090 c0 -5 -7 -10 -15 -10 -8 0 -15 -4 -15 -10 0 -5 -9 -10
-20 -10 -13 0 -20 -7 -20 -20 0 -11 -4 -20 -10 -20 -5 0 -10 -7 -10 -15 0 -8
-4 -15 -10 -15 -6 0 -10 -44 -10 -113 0 -101 2 -114 20 -127 11 -8 20 -22 20
-32 0 -11 7 -18 20 -18 11 0 20 -4 20 -10 0 -5 9 -10 19 -10 11 0 23 -9 26
-20 6 -18 15 -20 96 -20 82 0 89 1 89 20 0 15 7 20 25 20 14 0 25 5 25 10 0 6
9 10 20 10 12 0 20 7 20 16 0 20 24 44 44 44 14 0 16 17 16 115 0 108 -1 115
-20 115 -11 0 -20 7 -20 15 0 8 -4 15 -10 15 -5 0 -10 9 -10 20 0 13 -7 20
-20 20 -11 0 -20 5 -20 10 0 6 -7 10 -15 10 -8 0 -15 5 -15 10 0 6 -43 10
-110 10 -67 0 -110 -4 -110 -10z"/>
<path d="M1505 1640 c-3 -5 -28 -10 -55 -10 -29 0 -50 -5 -53 -12 -4 -10 -6
-10 -6 0 -2 21 -29 13 -34 -10 l-4 -23 -2 23 c-1 30 -50 32 -58 2 -5 -18 -14
-20 -99 -20 -82 0 -95 2 -107 20 -14 20 -23 21 -213 18 l-199 -3 -3 -37 c-3
-36 -2 -38 27 -38 24 0 31 -4 31 -20 0 -11 6 -20 13 -20 8 0 8 -3 -2 -9 -8 -5
-11 -16 -8 -25 5 -12 20 -16 57 -16 27 0 50 -4 50 -10 0 -5 7 -10 15 -10 8 0
15 5 15 10 0 14 27 12 33 -2 3 -10 9 -10 25 -1 13 8 23 9 27 3 8 -13 52 -13
60 0 3 5 18 9 33 8 15 0 65 0 112 2 47 1 116 -4 153 -10 37 -7 71 -10 74 -6 3
3 12 -2 20 -12 12 -16 14 -16 24 1 10 17 52 15 74 -4 12 -11 155 -12 155 -1 0
15 47 31 58 20 6 -6 16 -7 28 0 11 5 111 10 223 11 118 1 210 6 217 11 6 6 55
11 108 11 76 0 96 3 96 15 0 11 19 14 94 14 66 0 96 4 99 13 4 10 6 10 6 0 1
-10 27 -13 96 -13 57 0 95 -4 95 -10 0 -5 7 -10 15 -10 8 0 15 5 15 10 0 6 24
10 54 10 34 0 57 5 60 13 5 10 7 10 12 0 7 -15 44 -17 44 -3 0 6 16 10 36 10
62 0 90 52 33 64 -17 3 -35 3 -40 0 -5 -3 -9 3 -9 13 0 10 -8 23 -17 29 -23
14 -103 17 -103 4 0 -6 -16 -10 -35 -10 -19 0 -35 5 -35 10 0 15 -177 13 -183
-2 -4 -10 -6 -10 -6 0 -1 15 -87 17 -96 2 -3 -5 -24 -10 -46 -10 -21 0 -39 5
-39 10 0 6 -13 10 -30 10 -16 0 -30 -5 -30 -10 0 -7 -6 -7 -20 0 -29 16 -707
13 -714 -3 -3 -9 -5 -9 -5 1 -1 7 -15 12 -35 12 -19 0 -36 -6 -39 -12 -3 -10
-9 -10 -26 0 -25 15 -28 15 -36 2z"/>
<path d="M258 1080 c-48 -49 -68 -77 -68 -95 l0 -25 1425 0 1426 0 49 50 c28
27 50 53 50 58 0 6 7 13 16 16 10 4 14 15 12 33 l-3 28 -1420 2 -1420 3 -67
-70z"/>
<path d="M103 603 c-21 -8 -16 -67 7 -83 13 -9 20 -26 20 -47 0 -18 5 -33 10
-33 6 0 10 -15 10 -34 0 -19 5 -38 10 -41 6 -3 10 -19 10 -36 0 -16 5 -29 10
-29 6 0 10 -13 10 -29 0 -17 5 -33 10 -36 6 -3 10 -19 10 -34 0 -15 4 -31 9
-37 5 -5 11 -22 13 -39 3 -29 4 -30 66 -33 74 -3 92 9 92 62 0 20 5 36 10 36
15 0 12 60 -2 60 -7 0 -1 8 14 17 17 11 28 29 32 50 3 18 9 49 12 68 3 19 10
38 15 41 5 3 9 14 9 24 0 25 32 80 47 80 6 0 14 6 16 13 4 10 6 10 6 0 1 -7
10 -13 21 -13 19 0 20 -7 20 -178 l0 -177 -25 -19 c-14 -11 -25 -29 -25 -42
l0 -24 135 0 135 0 0 25 c0 14 -9 30 -20 37 -19 12 -20 24 -20 195 0 155 2
183 15 183 24 0 31 51 10 67 -23 16 -206 18 -235 3 -13 -7 -21 -7 -25 0 -3 5
-40 10 -81 10 -59 0 -74 -3 -74 -15 0 -8 -4 -15 -10 -15 -17 0 -11 -22 12 -42
17 -14 21 -28 20 -56 -2 -20 -7 -41 -12 -46 -6 -6 -11 -28 -11 -50 -2 -30 -3
-34 -6 -13 -2 15 -9 27 -14 27 -5 0 -9 14 -9 30 0 17 -4 30 -10 30 -5 0 -10
16 -10 35 0 19 5 35 10 35 17 0 12 67 -6 74 -19 7 -213 7 -231 -1z"/>
<path d="M853 603 c-7 -2 -13 -20 -13 -39 0 -27 4 -34 20 -34 19 0 20 -7 20
-180 0 -169 -1 -181 -20 -192 -12 -8 -20 -24 -20 -40 l0 -28 130 0 130 0 0 28
c0 16 -8 32 -20 40 -17 10 -20 23 -20 78 l0 65 25 -25 c22 -22 25 -34 25 -92
0 -60 3 -69 28 -90 44 -38 130 -32 180 13 8 8 12 29 10 55 -2 34 -7 43 -20 42
-14 -1 -18 6 -18 38 0 28 -7 46 -25 64 -29 29 -31 42 -10 50 8 4 15 15 15 25
0 10 5 19 10 19 6 0 10 25 10 55 0 51 -3 59 -37 93 -21 20 -52 42 -71 49 -33
11 -304 17 -329 6z"/>
<path d="M1317 603 c-9 -8 -9 -166 -1 -187 4 -10 18 -16 40 -16 29 0 34 3 34
24 0 13 7 26 15 30 8 3 15 17 15 31 0 14 5 25 10 25 6 0 10 -65 10 -176 0
-167 -1 -176 -20 -181 -14 -4 -20 -14 -20 -34 l0 -30 143 3 142 3 0 25 c0 18
-6 26 -22 28 -23 3 -23 4 -23 183 0 160 2 179 15 165 8 -8 15 -25 15 -38 1
-32 23 -58 50 -58 33 0 49 28 50 83 0 26 4 47 10 47 5 0 11 -67 13 -157 4
-199 22 -263 71 -263 9 0 16 -4 16 -10 0 -5 9 -10 20 -10 11 0 20 -4 20 -10 0
-6 37 -10 90 -10 53 0 90 4 90 10 0 6 7 10 16 10 8 0 23 7 32 17 37 36 42 63
42 209 0 114 3 151 17 179 9 19 23 35 30 35 21 0 16 58 -6 70 -25 13 -127 13
-152 0 -27 -15 -24 -54 6 -76 14 -10 25 -27 25 -36 0 -10 5 -18 10 -18 6 0 10
-45 10 -115 0 -70 -4 -115 -10 -115 -5 0 -10 -10 -10 -21 0 -40 -68 -81 -95
-59 -12 10 -15 47 -15 189 0 165 1 178 20 191 25 18 25 32 2 53 -26 23 -240
25 -248 2 -5 -13 -8 -13 -20 0 -12 11 -56 14 -222 15 -115 0 -212 -3 -215 -7z"/>
<path d="M2400 595 c0 -8 -4 -15 -10 -15 -5 0 -10 -11 -10 -25 0 -14 5 -25 10
-25 6 0 10 -7 10 -15 0 -8 -9 -15 -20 -15 -17 0 -20 -7 -20 -40 0 -22 -4 -40
-10 -40 -5 0 -10 -14 -10 -31 0 -17 -7 -37 -15 -45 -8 -9 -15 -26 -15 -40 0
-13 -4 -32 -9 -42 -6 -9 -12 -30 -16 -45 -3 -16 -17 -40 -30 -53 -14 -14 -25
-36 -25 -49 0 -24 2 -25 80 -25 l80 0 0 28 c0 16 -8 34 -20 42 -26 19 -9 30
48 30 35 0 42 -3 42 -19 0 -11 -4 -23 -10 -26 -5 -3 -10 -17 -10 -31 l0 -24
330 0 330 0 0 88 c0 77 -2 89 -21 100 -18 12 -23 10 -40 -9 -10 -12 -19 -28
-19 -36 0 -17 -39 -58 -62 -66 -17 -6 -18 7 -18 178 0 180 1 185 21 185 17 0
20 5 17 38 l-3 37 -113 3 c-66 1 -120 -2 -132 -8 -27 -14 -27 -60 0 -67 19 -5
20 -14 20 -183 0 -164 -1 -178 -20 -195 -19 -17 -21 -17 -40 0 -12 11 -20 31
-20 52 0 21 -6 36 -15 39 -11 4 -15 21 -15 55 0 27 -4 49 -10 49 -5 0 -10 18
-10 40 0 22 -4 40 -10 40 -5 0 -10 20 -10 45 0 25 -4 45 -10 45 -5 0 -10 18
-10 39 0 47 -8 51 -106 51 -59 0 -74 -3 -74 -15z"/>
<path d="M3584 597 c-6 -7 -24 -21 -39 -32 -15 -11 -31 -22 -34 -25 -20 -15
-51 -86 -51 -116 0 -19 -4 -34 -10 -34 -6 0 -10 -28 -10 -65 0 -37 4 -65 10
-65 6 0 10 -11 10 -25 0 -40 54 -125 79 -125 6 0 11 -4 11 -10 0 -5 9 -10 20
-10 11 0 20 -4 20 -10 0 -15 146 -12 173 3 12 6 24 15 27 18 3 3 13 8 23 12 9
3 17 13 17 22 0 8 5 15 10 15 6 0 10 7 10 15 0 8 5 15 10 15 6 0 10 16 10 35
0 33 -2 35 -34 35 -28 0 -38 -6 -55 -34 -37 -59 -86 -80 -123 -52 -16 12 -18
32 -18 170 0 90 4 156 9 156 5 0 13 9 16 20 7 21 55 29 55 10 0 -5 7 -10 15
-10 8 0 15 -6 15 -13 0 -30 52 -117 70 -117 47 0 50 7 50 116 l0 104 -27 6
c-15 4 -34 2 -45 -5 -13 -8 -24 -9 -31 -2 -18 14 -170 12 -183 -2z"/>
<path d="M3913 603 c-7 -2 -13 -20 -13 -39 0 -27 4 -34 20 -34 19 0 20 -7 20
-180 0 -169 -1 -181 -20 -192 -12 -8 -20 -24 -20 -40 l0 -28 134 0 c96 0 135
3 138 12 3 8 12 5 28 -10 38 -35 143 -28 172 13 5 6 8 5 8 -2 0 -9 23 -13 80
-13 l80 0 0 28 c0 17 -8 32 -20 40 -31 19 -15 32 41 32 42 0 49 -3 49 -20 0
-11 -4 -20 -10 -20 -5 0 -10 -13 -10 -30 l0 -30 130 0 130 0 0 28 c0 16 -8 34
-20 42 -14 10 -20 26 -20 52 0 21 -4 38 -9 38 -5 0 -12 19 -15 43 -13 102 -19
127 -27 133 -5 3 -9 23 -9 44 0 21 -4 42 -10 45 -5 3 -10 23 -10 44 0 46 -11
51 -113 51 -67 0 -68 0 -82 -32 -8 -21 -10 -37 -4 -43 15 -15 10 -32 -11 -38
-15 -4 -20 -14 -20 -40 0 -20 -4 -39 -10 -42 -5 -3 -10 -19 -10 -35 0 -16 -4
-32 -10 -35 -5 -3 -10 -22 -10 -41 0 -19 -4 -34 -10 -34 -5 0 -10 -11 -10 -25
0 -26 -15 -58 -37 -83 -11 -11 -13 -8 -13 18 0 27 -3 32 -20 27 -18 -5 -20 0
-20 37 0 30 -5 46 -20 56 -20 15 -28 60 -10 60 6 0 10 9 10 20 0 11 5 20 10
20 6 0 10 25 10 56 0 49 -4 59 -30 84 -16 15 -30 32 -30 37 0 12 -81 33 -125
33 -34 0 -35 -1 -35 -37 0 -21 9 -53 20 -71 25 -41 25 -82 0 -110 -14 -14 -20
-35 -20 -64 0 -32 5 -47 20 -58 16 -11 20 -26 20 -67 0 -54 -10 -65 -36 -39
-11 12 -14 57 -14 230 l0 216 -97 -1 c-54 0 -104 -3 -110 -6z"/>
<path d="M4873 604 c-7 -3 -13 -21 -13 -40 0 -27 4 -34 20 -34 19 0 20 -7 20
-180 0 -169 -1 -181 -20 -192 -12 -8 -20 -24 -20 -40 l0 -28 130 0 130 0 0 28
c0 16 -8 32 -20 40 -18 11 -20 25 -22 229 l-3 218 -95 2 c-52 1 -101 -1 -107
-3z"/>
<path d="M5090 574 c0 -36 18 -64 41 -64 12 0 38 -29 39 -42 0 -5 -9 -8 -20
-8 -13 0 -20 -7 -20 -18 0 -10 -9 -24 -20 -32 -15 -11 -20 -26 -20 -60 0 -34
5 -49 20 -60 11 -8 20 -25 20 -37 0 -18 6 -23 24 -23 44 0 56 24 56 111 0 72
2 79 19 79 11 0 23 -4 26 -10 3 -5 22 -10 41 -10 30 0 34 3 34 25 0 14 5 25
10 25 6 0 10 12 10 26 0 14 7 32 15 40 13 14 15 -5 15 -171 0 -178 -1 -187
-20 -192 -14 -4 -20 -14 -20 -34 l0 -29 140 0 140 0 0 30 c0 23 -4 30 -20 30
-19 0 -20 7 -20 181 0 160 2 179 15 165 8 -8 15 -25 15 -38 1 -57 66 -81 88
-33 18 39 15 150 -3 169 -13 13 -59 15 -310 15 l-295 0 0 -35z"/>
</g>
</svg>
